<svg width="800" height="800" viewBox="0 0 800 800" fill="none" xmlns="http://www.w3.org/2000/svg">
<path d="M399.993 800C179.086 800 0 620.911 0 400.004C0 179.105 179.084 1.18416e-05 399.988 1.18416e-05C620.892 1.18416e-05 799.995 179.105 799.995 400.004C799.995 620.911 620.903 800 399.993 800ZM580.485 293.888C565.898 279.309 542.251 279.301 527.659 293.888L398.967 422.606L269.576 293.232C254.997 278.653 231.342 278.645 216.75 293.232C209.467 300.536 205.822 310.088 205.822 319.645C205.822 329.202 209.467 338.754 216.763 346.037L366.874 496.16C368.311 498.395 369.959 500.526 371.908 502.475C379.364 509.931 389.177 513.52 398.964 513.347C408.729 513.512 418.558 509.931 426.006 502.467C427.964 500.523 429.604 498.392 431.036 496.16L580.482 346.714C595.063 332.127 595.074 308.48 580.485 293.888Z" fill="black"/>
</svg>
